<svg width="378" height="317" viewBox="0 0 378 317" fill="none" xmlns="http://www.w3.org/2000/svg">
<path d="M110.89 68.06C110.89 57.33 102.19 48.6299 91.46 48.6299C80.73 48.6299 72.0298 57.33 72.0298 68.06C72.0298 78.79 80.73 87.4899 91.46 87.4899C102.19 87.4899 110.89 78.79 110.89 68.06Z" fill="#FFB743"/>
<path d="M166.53 175.16C156.35 164 147.57 151.64 140.81 138.14C134.19 124.91 129.89 110.36 129.76 95.5699C129.46 60.8899 152.9 29.36 185.95 19.18C188.48 18.4 191.06 17.7499 193.66 17.2299C209.2 14.1499 225.65 15.9299 240.22 22.1299C254.71 28.2999 263.21 41.7299 275.57 50.8299C291.99 62.9299 313.94 60.5699 331.41 70.3199C343.25 76.9299 352.77 87.4 358.94 99.42C374.01 128.76 371.71 166.37 351.73 193.03C334.43 216.12 306.33 229.21 277.84 230.86C272.8 231.15 267.74 231.1 262.71 230.69C248.19 229.53 233.82 225.48 221.15 218.2C201.2 206.74 182.21 192.35 166.53 175.15V175.16Z" fill="#FFB743"/>
<path d="M245.53 67.77H0.939941V261.02H245.53V67.77Z" fill="white"/>
<path d="M245.53 67.77H0.939941V87.4399H245.53V67.77Z" fill="#FD5F2F"/>
<path d="M245.53 261.75H0.939941C0.529941 261.75 0.209961 261.42 0.209961 261.02V67.77C0.209961 67.36 0.539941 67.04 0.939941 67.04H245.53C245.94 67.04 246.26 67.37 246.26 67.77V261.02C246.26 261.43 245.93 261.75 245.53 261.75ZM1.66992 260.28H244.8V68.4999H1.66992V260.28Z" fill="black"/>
<path d="M245.53 88.17H0.939941C0.529941 88.17 0.209961 87.8399 0.209961 87.4399C0.209961 87.0399 0.539941 86.7099 0.939941 86.7099H245.53C245.94 86.7099 246.26 87.0399 246.26 87.4399C246.26 87.8399 245.93 88.17 245.53 88.17Z" fill="black"/>
<path d="M15.2202 76.93C15.2202 78.8 13.7001 80.3199 11.8301 80.3199C9.96008 80.3199 8.43994 78.8 8.43994 76.93C8.43994 75.06 9.96008 73.54 11.8301 73.54C13.7001 73.54 15.2202 75.06 15.2202 76.93Z" fill="black"/>
<path d="M40.2798 76.93C40.2798 78.8 38.7601 80.3199 36.8901 80.3199C35.0201 80.3199 33.5 78.8 33.5 76.93C33.5 75.06 35.0201 73.54 36.8901 73.54C38.7601 73.54 40.2798 75.06 40.2798 76.93Z" fill="white"/>
<path d="M27.75 76.93C27.75 78.8 26.2299 80.3199 24.3599 80.3199C22.4899 80.3199 20.9702 78.8 20.9702 76.93C20.9702 75.06 22.4899 73.54 24.3599 73.54C26.2299 73.54 27.75 75.06 27.75 76.93Z" fill="#FFB743"/>
<path d="M123.23 192.62C144.068 192.62 160.96 175.728 160.96 154.89C160.96 134.052 144.068 117.16 123.23 117.16C102.392 117.16 85.5 134.052 85.5 154.89C85.5 175.728 102.392 192.62 123.23 192.62Z" fill="#FD5F2F"/>
<path d="M123.23 193.35C102.02 193.35 84.7598 176.09 84.7598 154.88C84.7598 133.67 102.01 116.41 123.23 116.41C144.45 116.41 161.7 133.67 161.7 154.88C161.7 176.09 144.45 193.35 123.23 193.35ZM123.23 117.89C102.83 117.89 86.23 134.49 86.23 154.89C86.23 175.29 102.83 191.89 123.23 191.89C143.63 191.89 160.23 175.29 160.23 154.89C160.23 134.49 143.63 117.89 123.23 117.89Z" fill="black"/>
<path d="M116.42 166.08C116.24 166.08 116.05 166.01 115.91 165.87L103.58 153.89C103.29 153.61 103.28 153.14 103.57 152.85C103.85 152.56 104.32 152.55 104.61 152.84L116.44 164.33L141.64 140.33C141.94 140.05 142.4 140.06 142.68 140.36C142.96 140.65 142.95 141.12 142.66 141.4L116.95 165.89C116.81 166.03 116.63 166.09 116.44 166.09L116.42 166.08Z" fill="white"/>
<path d="M160.97 215.38H88.8101C88.4001 215.38 88.0801 215.05 88.0801 214.65V201.16C88.0801 200.75 88.4101 200.43 88.8101 200.43H160.97C161.38 200.43 161.7 200.76 161.7 201.16V214.65C161.7 215.06 161.37 215.38 160.97 215.38ZM89.54 213.91H160.24V201.88H89.54V213.91Z" fill="black"/>
<path d="M143.25 225.69H88.7998V239.19H143.25V225.69Z" fill="#FFB743"/>
<path d="M358.47 243.54C347.82 224.43 334.15 188.39 303.24 179.42C278.45 172.22 251.26 169.76 226.44 175.41C215.56 177.89 204.87 182.16 196.19 189.3C187.85 196.17 181.03 204.62 175.17 213.66C174.29 215.02 129.25 272.17 154.04 295.86C172.87 313.85 203.11 300.44 210.26 290.26H307.01L306.37 286.37C329.42 307.62 354.53 308.2 364.14 294.35C371.25 284.1 370.64 265.36 358.48 243.53L358.47 243.54Z" fill="black"/>
<path d="M253.2 194.87C268.54 195.84 284.5 184.2 293.05 176.76C271.13 171.7 247.9 170.52 226.45 175.4C224.97 175.74 223.5 176.11 222.03 176.52C227.41 183.33 238.12 193.92 253.21 194.87H253.2Z" fill="white"/>
<path d="M210.26 290.25H307.01C307.01 290.25 311.72 301.13 313.55 316.18H209.36L210.26 290.25Z" fill="white"/>
<path d="M209.36 316.92C208.93 316.91 208.61 316.57 208.63 316.16L209.53 290.23C209.54 289.83 209.87 289.52 210.26 289.52H307.01C307.3 289.52 307.57 289.69 307.68 289.96C307.73 290.07 312.45 301.11 314.27 316.09C314.32 316.49 314.03 316.86 313.63 316.91C313.24 316.96 312.86 316.67 312.81 316.27C311.22 303.18 307.39 293.17 306.51 290.98H210.96L210.08 316.2C210.07 316.6 209.74 316.91 209.35 316.91L209.36 316.92Z" fill="black"/>
<path d="M177 305.42C169.87 305.42 161.05 303.56 153.54 296.38C131.33 275.15 163.66 227.88 174.09 213.89C174.35 213.54 174.51 213.32 174.56 213.25C181.19 203.01 188.11 194.98 195.72 188.72C203.63 182.22 213.91 177.49 226.28 174.68C255.62 168 284.44 173.18 303.44 178.7C329.9 186.39 343.8 213.53 353.95 233.35C355.76 236.9 357.48 240.24 359.11 243.17C370.49 263.59 372.64 283.36 364.74 294.76C361.06 300.07 355 303.44 347.67 304.25C335.13 305.63 320.56 299.84 307.43 288.31L307.73 290.13C307.76 290.34 307.71 290.56 307.57 290.72C307.43 290.88 307.23 290.98 307.01 290.98H210.63C206.13 297.05 194.03 303.95 181.14 305.21C179.85 305.34 178.45 305.42 176.99 305.42H177ZM255.38 173C246.08 173 236.37 173.89 226.61 176.12C214.47 178.88 204.39 183.51 196.66 189.86C189.16 196.03 182.34 203.94 175.79 214.06C175.74 214.14 175.56 214.38 175.26 214.78C165.01 228.52 133.2 274.93 154.54 295.33C163.19 303.6 173.7 304.48 181 303.77C193.69 302.53 205.53 295.71 209.66 289.85C209.8 289.65 210.02 289.54 210.26 289.54H306.14L305.64 286.51C305.59 286.2 305.74 285.89 306.02 285.74C306.29 285.59 306.64 285.63 306.87 285.85C320.08 298.03 334.9 304.21 347.51 302.82C354.5 302.05 360.04 298.98 363.53 293.96C371.12 283.02 368.93 263.85 357.83 243.92C356.19 240.97 354.47 237.61 352.65 234.06C342.63 214.48 328.9 187.66 303.04 180.15C290.53 176.52 273.75 173.03 255.38 173.03V173ZM183.03 214.45C182.79 214.45 182.55 214.33 182.41 214.12C182.22 213.83 182.26 213.45 182.5 213.2C182.75 212.95 183.16 212.9 183.44 213.1C183.73 213.3 183.84 213.68 183.7 214C183.62 214.18 183.47 214.32 183.29 214.39C183.2 214.42 183.11 214.44 183.02 214.44L183.03 214.45Z" fill="black"/>
<path d="M294.77 225.43C294.36 225.43 294.04 225.1 294.04 224.7V197.68C294.04 197.27 294.37 196.95 294.77 196.95C295.17 196.95 295.5 197.28 295.5 197.68V224.7C295.5 225.11 295.17 225.43 294.77 225.43Z" fill="white"/>
<path d="M306.37 287.1C306.25 287.1 306.13 287.07 306.02 287.01C305.63 286.8 296.53 281.85 289.58 273.6C289.32 273.29 289.36 272.83 289.67 272.57C289.98 272.31 290.44 272.35 290.7 272.66C297.46 280.69 306.62 285.67 306.72 285.72C307.08 285.91 307.21 286.36 307.02 286.71C306.89 286.96 306.63 287.1 306.37 287.1Z" fill="white"/>
<path d="M157.15 251.1C156.95 251.1 156.75 251.02 156.61 250.86C156.34 250.56 156.35 250.1 156.65 249.82C157.1 249.4 167.8 239.63 177.52 237.63C177.91 237.55 178.31 237.8 178.39 238.2C178.47 238.6 178.22 238.99 177.82 239.07C168.51 240.98 157.76 250.8 157.65 250.9C157.51 251.03 157.33 251.09 157.15 251.09V251.1Z" fill="white"/>
<path d="M197.86 295.96C197.74 295.96 197.62 295.93 197.51 295.87C197.15 295.67 197.03 295.23 197.22 294.87C201.83 286.49 203.46 270.74 203.48 270.58C203.52 270.18 203.89 269.89 204.28 269.92C204.68 269.96 204.98 270.32 204.94 270.72C204.87 271.38 203.27 286.93 198.51 295.57C198.38 295.81 198.12 295.95 197.87 295.95L197.86 295.96Z" fill="white"/>
<path d="M355.64 249.1C355.52 249.1 355.39 249.07 355.28 249.01C339.99 240.39 316.92 241.08 316.69 241.09C316.26 241.11 315.95 240.79 315.93 240.38C315.92 239.97 316.23 239.64 316.64 239.62C316.88 239.62 340.35 238.9 356.01 247.73C356.36 247.93 356.49 248.38 356.29 248.73C356.15 248.97 355.91 249.1 355.65 249.1H355.64Z" fill="white"/>
<path d="M235.36 135C232.78 147.03 240.45 158.88 252.48 161.46C264.51 164.04 276.36 156.37 278.94 144.34C281.52 132.31 273.85 120.46 261.82 117.88C249.79 115.3 237.94 122.97 235.36 135Z" fill="black"/>
<path d="M268.92 176.6L265.21 160.44C255.59 156.98 263.04 145 263.04 145C252.74 142.88 251.36 131.89 251.03 125.95C250.94 124.31 249.39 123.14 247.79 123.52C244.45 124.31 239.55 125.81 238.31 129.09C232.51 144.44 224.32 159.03 241.08 164.08L243.93 178.06L268.92 176.6Z" fill="white"/>
<path d="M243.18 175.11C242.84 175.11 242.53 174.87 242.46 174.52L240.45 164.65C235.93 163.21 233.01 161.01 231.52 157.93C228.54 151.75 231.98 143.11 235.62 133.96C236.29 132.27 236.98 130.55 237.63 128.83C238.99 125.23 243.99 123.67 247.63 122.81C248.6 122.58 249.62 122.79 250.42 123.39C251.22 123.99 251.72 124.91 251.77 125.91C252.37 136.82 256.11 142.83 263.19 144.28C263.43 144.33 263.62 144.49 263.72 144.71C263.81 144.93 263.8 145.18 263.67 145.39C263.63 145.45 259.86 151.61 261.39 156.02C261.99 157.74 263.36 158.99 265.46 159.75C265.7 159.83 265.87 160.03 265.93 160.28L269.07 173.96C269.16 174.36 268.91 174.75 268.52 174.84C268.13 174.93 267.73 174.68 267.64 174.29L264.59 160.99C262.26 160.06 260.72 158.55 260.01 156.5C258.6 152.45 260.87 147.48 261.93 145.49C251.22 142.59 250.54 130.16 250.31 125.99C250.28 125.42 250 124.9 249.55 124.56C249.1 124.22 248.52 124.1 247.97 124.23C246.06 124.68 240.25 126.06 239 129.35C238.35 131.08 237.66 132.8 236.98 134.5C233.46 143.34 230.14 151.69 232.84 157.29C234.19 160.08 236.95 162.07 241.29 163.38C241.55 163.46 241.74 163.67 241.8 163.94L243.9 174.23C243.98 174.63 243.72 175.01 243.33 175.1C243.28 175.11 243.23 175.11 243.18 175.11Z" fill="black"/>
<path d="M247.02 165.44C245.4 165.44 243.27 165.31 240.93 164.81C240.53 164.72 240.28 164.33 240.37 163.94C240.45 163.54 240.85 163.29 241.24 163.38C245.92 164.38 249.83 163.82 249.87 163.82C250.26 163.76 250.64 164.04 250.7 164.44C250.76 164.84 250.48 165.21 250.08 165.27C249.99 165.28 248.82 165.45 247.01 165.45L247.02 165.44Z" fill="black"/>
<path d="M242.69 172.08C242.69 172.08 243.66 173.15 246.97 171.75C250.28 170.36 249.98 164.52 249.98 164.52L241.09 164.08L242.69 172.08Z" fill="black"/>
<path d="M267.93 148C267.16 151.57 263.65 153.85 260.07 153.09C256.5 152.32 254.22 148.81 254.98 145.23C255.75 141.66 259.26 139.38 262.84 140.14C266.41 140.91 268.69 144.42 267.93 148Z" fill="white"/>
<path d="M260.02 148.25C259.82 148.25 259.62 148.17 259.48 148.01C259.21 147.71 259.23 147.25 259.53 146.97L262.61 144.16C262.91 143.89 263.37 143.91 263.65 144.21C263.92 144.51 263.9 144.97 263.6 145.25L260.52 148.06C260.38 148.19 260.2 148.25 260.03 148.25H260.02Z" fill="black"/>
<path d="M263.19 153.08C263.19 154.8 261.79 156.2 260.07 156.2C258.35 156.2 256.95 154.8 256.95 153.08C256.95 151.36 258.35 149.96 260.07 149.96C261.79 149.96 263.19 151.36 263.19 153.08Z" fill="#FD5F2F"/>
<path d="M238.32 147.36C238.21 147.36 238.1 147.34 238 147.29C237.64 147.11 237.48 146.67 237.66 146.31L242.02 137.32C242.2 136.96 242.63 136.8 243 136.98C243.36 137.16 243.52 137.6 243.34 137.96L238.98 146.95C238.85 147.21 238.59 147.36 238.32 147.36Z" fill="black"/>
<path d="M252.3 141.98C252.18 142.79 251.42 143.35 250.61 143.23C249.8 143.11 249.24 142.35 249.36 141.54C249.48 140.73 250.24 140.17 251.05 140.29C251.86 140.41 252.42 141.17 252.3 141.98Z" fill="black"/>
<path d="M240.82 138.5C240.7 139.31 239.94 139.87 239.13 139.75C238.32 139.63 237.76 138.87 237.88 138.06C238 137.25 238.76 136.69 239.57 136.81C240.38 136.93 240.94 137.69 240.82 138.5Z" fill="black"/>
<path d="M279.775 127.655C290.151 126.377 297.527 116.93 296.249 106.553C294.971 96.1771 285.524 88.8011 275.148 90.0788C264.771 91.3566 257.395 100.804 258.673 111.181C259.951 121.557 269.398 128.933 279.775 127.655Z" fill="black"/>
<path d="M279.44 128.47C268.6 128.47 259.78 119.65 259.78 108.81C259.78 97.97 268.6 89.15 279.44 89.15C290.28 89.15 299.1 97.97 299.1 108.81C299.1 119.65 290.28 128.47 279.44 128.47ZM279.44 90.6099C269.41 90.6099 261.24 98.77 261.24 108.81C261.24 118.85 269.4 127.01 279.44 127.01C289.48 127.01 297.64 118.85 297.64 108.81C297.64 98.77 289.48 90.6099 279.44 90.6099Z" fill="black"/>
<path d="M276.18 128.81C276.04 128.81 275.9 128.77 275.77 128.69L260.11 118.25C259.77 118.03 259.68 117.57 259.91 117.23C260.13 116.89 260.59 116.8 260.93 117.03L276.59 127.47C276.93 127.69 277.02 128.15 276.79 128.49C276.65 128.7 276.42 128.82 276.18 128.82V128.81Z" fill="#FD5F2F"/>
<path d="M240.36 152.48C239 152.48 237.69 151.72 237.06 150.43C236.88 150.07 237.03 149.63 237.4 149.45L242.68 146.86C242.85 146.77 243.05 146.76 243.24 146.82C243.42 146.88 243.58 147.02 243.66 147.19C244.55 149.01 243.8 151.21 241.98 152.11C241.46 152.36 240.91 152.49 240.37 152.49L240.36 152.48ZM238.81 150.38C239.46 151.01 240.46 151.21 241.33 150.78C242.19 150.36 242.65 149.45 242.55 148.54L238.82 150.37L238.81 150.38Z" fill="black"/>
<path d="M184.3 230.38L170.25 247.29C162.84 256.21 164.1 269.46 173.05 276.82C181.98 284.17 195.18 282.87 202.52 273.92L220.68 251.77L184.3 230.37V230.38Z" fill="white"/>
<path d="M186.3 282.32C181.3 282.32 176.5 280.61 172.59 277.39C168.11 273.7 165.33 268.49 164.78 262.71C164.23 256.93 165.97 251.29 169.68 246.82L183.73 229.91C183.96 229.63 184.36 229.56 184.67 229.75L221.05 251.15C221.23 251.26 221.36 251.44 221.4 251.65C221.44 251.86 221.38 252.08 221.25 252.24L203.09 274.39C199.42 278.87 194.22 281.65 188.46 282.21C187.74 282.28 187.02 282.32 186.3 282.32ZM184.47 231.32L170.82 247.75C167.36 251.91 165.74 257.17 166.25 262.56C166.76 267.95 169.35 272.81 173.53 276.25C177.7 279.68 182.96 281.28 188.33 280.75C193.7 280.22 198.55 277.63 201.97 273.46L219.58 251.98L184.48 231.33L184.47 231.32Z" fill="black"/>
<path d="M210.26 290.99C209.85 290.99 209.53 290.66 209.53 290.26V248.37C209.53 247.96 209.86 247.64 210.26 247.64C210.66 247.64 210.99 247.97 210.99 248.37V290.26C210.99 290.67 210.66 290.99 210.26 290.99Z" fill="white"/>
<path d="M200.77 270.66H279.4C284.818 270.66 289.21 266.268 289.21 260.85V215.87C289.21 210.452 284.818 206.06 279.4 206.06H200.77C195.352 206.06 190.96 210.452 190.96 215.87V260.85C190.96 266.268 195.352 270.66 200.77 270.66Z" fill="white"/>
<path d="M279.4 271.39H200.77C194.96 271.39 190.23 266.66 190.23 260.85V215.87C190.23 210.06 194.96 205.33 200.77 205.33H279.4C285.21 205.33 289.94 210.06 289.94 215.87V260.85C289.94 266.66 285.21 271.39 279.4 271.39ZM200.77 206.79C195.77 206.79 191.69 210.86 191.69 215.87V260.85C191.69 265.85 195.76 269.93 200.77 269.93H279.4C284.4 269.93 288.48 265.86 288.48 260.85V215.87C288.48 210.87 284.41 206.79 279.4 206.79H200.77Z" fill="black"/>
<path d="M232.24 238.36C232.24 242.69 235.75 246.2 240.08 246.2C244.41 246.2 247.92 242.69 247.92 238.36C247.92 234.03 244.41 230.52 240.08 230.52C235.75 230.52 232.24 234.03 232.24 238.36Z" fill="#FD5F2F"/>
<path d="M322.57 242.36L307.85 237.36C307.85 237.36 311.14 228.08 308.1 223.08C305.07 218.08 288.28 207.23 283.68 204.16C279.08 201.09 272.58 199.34 270.83 205.09C269.08 210.84 277.57 214.44 281.89 217.76C281.89 217.76 274.85 216.27 269.61 215.4C264.36 214.53 260.4 214.4 259.34 219.46C258.35 224.16 264.29 226.6 270.1 228.45C265.91 227.46 259.25 226.66 257.73 231.05C255.53 237.42 262.5 240.13 269.81 242.5C268.35 242.08 264.32 241.31 262.88 244.9C261.1 249.32 268.75 252.46 272.99 254.01C277.23 255.57 285.21 256.78 285.21 256.78C285.21 256.78 278.66 267.75 294.25 275.59C298.46 277.7 302.91 279.78 307.17 281.67C318.65 286.78 332.02 280.84 335.9 268.89C339.47 257.89 333.54 246.07 322.59 242.35L322.57 242.36Z" fill="white"/>
<path d="M315.77 284.25C312.73 284.25 309.69 283.62 306.86 282.36C302.08 280.23 297.72 278.18 293.91 276.26C288.28 273.43 284.8 269.86 283.57 265.66C282.5 262 283.46 258.86 284.1 257.36C281.82 256.98 276.14 255.96 272.72 254.71C268.9 253.31 263.65 251.07 262.24 247.9C261.76 246.83 261.75 245.73 262.19 244.63C262.87 242.95 264.02 242.09 265.26 241.7C261.56 240.27 258.49 238.57 257.2 235.98C256.43 234.44 256.38 232.71 257.03 230.81C257.9 228.3 260.34 226.99 264.08 226.94C260.37 225.16 257.89 222.82 258.62 219.3C259.83 213.51 264.57 213.81 269.73 214.67C272.58 215.15 275.98 215.81 278.49 216.31C278.41 216.26 278.33 216.21 278.25 216.16C273.95 213.37 268.61 209.91 270.14 204.88C270.75 202.88 271.92 201.55 273.62 200.94C277.58 199.52 282.64 202.58 284.1 203.55L285.4 204.41C291.52 208.46 305.86 217.96 308.74 222.7C311.45 227.17 309.5 234.57 308.78 236.9L322.81 241.67C334.07 245.5 340.25 257.82 336.58 269.13C334.67 275.02 330.33 279.84 324.68 282.36C321.85 283.62 318.81 284.25 315.77 284.25ZM267.3 242.87C265.86 242.87 264.28 243.35 263.55 245.18C263.26 245.9 263.27 246.6 263.58 247.3C264.9 250.27 271.16 252.57 273.22 253.33C277.34 254.84 285.22 256.05 285.29 256.07C285.53 256.11 285.74 256.26 285.84 256.48C285.94 256.7 285.93 256.96 285.81 257.17C285.79 257.21 283.68 260.86 284.97 265.28C286.08 269.06 289.3 272.32 294.55 274.95C298.35 276.86 302.68 278.9 307.44 281.02C312.73 283.37 318.79 283.37 324.07 281.02C329.34 278.67 333.39 274.17 335.17 268.68C338.59 258.13 332.83 246.64 322.33 243.06L307.61 238.06C307.42 238 307.27 237.86 307.19 237.69C307.1 237.51 307.09 237.31 307.16 237.12C307.19 237.03 310.29 228.11 307.48 223.47C304.77 219.01 290.1 209.3 284.58 205.64L283.28 204.78C280.58 202.98 276.76 201.39 274.11 202.33C272.87 202.77 272 203.78 271.54 205.31C270.33 209.28 274.96 212.29 279.05 214.93C280.25 215.71 281.39 216.44 282.34 217.18C282.61 217.39 282.7 217.76 282.56 218.07C282.42 218.38 282.08 218.55 281.74 218.48C281.67 218.47 274.66 216.99 269.49 216.12C263.79 215.17 260.93 215.45 260.06 219.61C259.22 223.63 264.49 225.9 270.32 227.75C270.7 227.87 270.91 228.27 270.8 228.65C270.7 229.03 270.3 229.26 269.92 229.17C266.2 228.29 259.76 227.4 258.41 231.3C257.88 232.83 257.91 234.15 258.5 235.33C260.01 238.36 265.02 240.19 270.01 241.81C270.39 241.93 270.6 242.34 270.49 242.72C270.37 243.1 269.98 243.32 269.59 243.21C269.04 243.05 268.2 242.87 267.3 242.87Z" fill="black"/>
<path d="M293.83 223.11C293.74 223.11 293.65 223.09 293.57 223.06L281.63 218.45C281.25 218.3 281.06 217.88 281.21 217.5C281.36 217.12 281.78 216.93 282.16 217.08L294.1 221.69C294.48 221.84 294.67 222.26 294.52 222.64C294.41 222.93 294.13 223.11 293.84 223.11H293.83Z" fill="black"/>
<path d="M287.86 234.94C287.77 234.94 287.67 234.92 287.58 234.88C284.02 233.41 270.03 229.19 269.89 229.15C269.5 229.03 269.28 228.62 269.4 228.24C269.52 227.85 269.93 227.63 270.31 227.75C270.89 227.92 284.51 232.03 288.14 233.53C288.51 233.68 288.69 234.11 288.54 234.49C288.42 234.77 288.15 234.94 287.86 234.94Z" fill="black"/>
<path d="M284.91 246.94C284.81 246.94 284.7 246.92 284.61 246.87C281.07 245.26 269.78 243.24 269.67 243.22C269.27 243.15 269 242.77 269.08 242.37C269.15 241.97 269.53 241.71 269.93 241.78C270.4 241.86 281.51 243.85 285.22 245.53C285.59 245.7 285.75 246.13 285.58 246.5C285.46 246.77 285.19 246.93 284.91 246.93V246.94Z" fill="black"/>
<path d="M304.45 248.06C304.37 248.06 304.29 248.05 304.21 248.02C303.83 247.89 303.62 247.47 303.75 247.09L307.16 237.13C307.29 236.75 307.71 236.54 308.09 236.67C308.47 236.8 308.68 237.22 308.55 237.6L305.14 247.56C305.04 247.86 304.75 248.06 304.45 248.06Z" fill="black"/>
<path d="M212.5 234.37C212.56 229.64 207.05 228.15 201.98 227.78C206.32 227.06 212.6 225.15 212.44 220.13C212.3 215.7 206.48 214.86 201.6 214.94C205.78 213.62 210.27 211.24 209.59 207.12C208.36 199.63 192.74 203.09 187.47 205.13C177.12 209.15 180.53 217.13 180.53 217.13C180.53 217.13 177.94 218.92 178.2 223C178.47 227.22 181.83 228.69 181.83 228.69C181.83 228.69 178.37 230.38 178.37 234.75C178.37 239.96 181.89 241.82 181.89 241.82C181.89 241.82 178.66 243.66 178.89 247.96C179.16 253.05 186.49 259.42 190.97 261.18V254.2C190.97 254.2 207.3 254.24 207.91 246.56C208.12 243.93 206.47 242.47 204.2 241.69C208.39 240.65 212.44 238.57 212.49 234.37H212.5Z" fill="white"/>
<path d="M190.97 261.92C190.88 261.92 190.79 261.9 190.7 261.87C185.84 259.96 178.43 253.29 178.15 248C177.98 244.75 179.59 242.77 180.64 241.84C179.48 240.86 177.63 238.69 177.63 234.75C177.63 231.53 179.32 229.63 180.47 228.71C179.33 227.86 177.66 226.11 177.47 223.05C177.26 219.63 178.87 217.66 179.68 216.9C179.35 215.85 178.82 213.35 179.95 210.66C181.08 207.98 183.52 205.89 187.21 204.46C191.44 202.82 202.43 200.21 207.57 203.15C209.12 204.03 210.04 205.33 210.32 207.02C210.67 209.18 209.95 212.04 205.17 214.35C211.56 214.98 213.1 217.74 213.18 220.12C213.29 223.51 210.77 226.1 205.99 227.61C211.92 228.91 213.27 231.9 213.23 234.39C213.2 236.81 211.91 239.96 206.27 241.87C208.39 243.22 208.76 245.13 208.65 246.63C208.06 254 195.02 254.84 191.71 254.94V261.2C191.71 261.44 191.59 261.67 191.39 261.81C191.27 261.89 191.12 261.94 190.98 261.94L190.97 261.92ZM201.07 203.27C196.37 203.27 190.76 204.65 187.74 205.82C184.45 207.1 182.28 208.91 181.31 211.21C180.08 214.1 181.2 216.82 181.21 216.85C181.34 217.17 181.24 217.54 180.95 217.74C180.86 217.8 178.71 219.38 178.93 222.96C179.16 226.65 182 227.97 182.12 228.02C182.38 228.14 182.55 228.39 182.56 228.68C182.56 228.96 182.41 229.23 182.15 229.35C182.03 229.41 179.1 230.91 179.1 234.75C179.1 239.42 182.1 241.1 182.23 241.17C182.46 241.3 182.61 241.54 182.62 241.81C182.62 242.08 182.48 242.32 182.25 242.46C182.14 242.53 179.42 244.16 179.62 247.93C179.85 252.25 185.85 257.88 190.23 260.06V254.21C190.23 254.01 190.31 253.83 190.45 253.69C190.59 253.55 190.79 253.48 190.97 253.48C191.22 253.48 206.63 253.41 207.18 246.51C207.34 244.54 206.29 243.19 203.97 242.4C203.66 242.29 203.46 242 203.47 241.67C203.48 241.34 203.71 241.07 204.03 240.99C209.12 239.73 211.72 237.5 211.76 234.37C211.81 230.14 206.44 228.85 201.92 228.53C201.55 228.5 201.26 228.2 201.24 227.83C201.22 227.46 201.49 227.13 201.85 227.07C205.59 226.45 211.84 224.73 211.7 220.17C211.58 216.33 206.14 215.61 201.61 215.69C201.28 215.69 200.93 215.43 200.87 215.07C200.81 214.71 201.03 214.36 201.37 214.25C205.12 213.07 209.45 210.9 208.86 207.25C208.66 206.01 207.99 205.08 206.83 204.42C205.39 203.6 203.33 203.27 201.06 203.27H201.07Z" fill="black"/>
<path d="M180.53 217.86C180.16 217.86 179.84 217.58 179.8 217.2C179.76 216.8 180.05 216.44 180.45 216.39L201.51 214.2C201.89 214.16 202.27 214.45 202.32 214.85C202.36 215.25 202.07 215.61 201.67 215.66L180.61 217.85C180.61 217.85 180.56 217.85 180.53 217.85V217.86Z" fill="black"/>
<path d="M181.83 229.42C181.44 229.42 181.12 229.11 181.1 228.72C181.08 228.31 181.4 227.97 181.8 227.95L201.95 227.04C202.36 227.02 202.7 227.34 202.72 227.74C202.74 228.15 202.42 228.49 202.02 228.51L181.87 229.42C181.87 229.42 181.85 229.42 181.84 229.42H181.83Z" fill="black"/>
<path d="M181.89 242.55C181.49 242.55 181.16 242.22 181.16 241.82C181.16 241.41 181.48 241.08 181.89 241.08L204.21 240.95C204.62 240.95 204.95 241.28 204.95 241.68C204.95 242.09 204.63 242.42 204.22 242.42L181.9 242.55H181.89Z" fill="black"/>
<path d="M376.997 145.684L327.177 134.411L319.962 166.295L369.783 177.568L376.997 145.684Z" fill="white"/>
<path d="M369.69 178.51C369.64 178.51 369.58 178.51 369.53 178.49L319.71 167.22C319.31 167.13 319.07 166.74 319.16 166.34L326.37 134.46C326.41 134.27 326.53 134.11 326.69 134C326.86 133.9 327.05 133.86 327.24 133.9L377.06 145.17C377.25 145.21 377.41 145.33 377.52 145.49C377.62 145.65 377.66 145.85 377.61 146.04L370.39 177.92C370.31 178.26 370.01 178.49 369.67 178.49L369.69 178.51ZM320.75 165.95L369.13 176.9L376.02 146.45L327.63 135.5L320.74 165.95H320.75Z" fill="black"/>
<path d="M347.33 161.6C347.11 161.6 346.89 161.5 346.75 161.31L326.5 135.07C326.25 134.75 326.31 134.29 326.63 134.04C326.95 133.79 327.41 133.85 327.66 134.17L347.53 159.93L376.56 145.23C376.92 145.05 377.36 145.19 377.55 145.55C377.73 145.91 377.59 146.35 377.23 146.54L347.66 161.51C347.55 161.56 347.44 161.59 347.33 161.59V161.6Z" fill="black"/>
<path d="M369.69 178.51C369.46 178.51 369.24 178.4 369.09 178.21L354.29 157.78C354.05 157.45 354.13 156.99 354.45 156.75C354.78 156.51 355.24 156.59 355.47 156.91L370.27 177.34C370.51 177.67 370.43 178.13 370.11 178.37C369.98 178.46 369.83 178.51 369.68 178.51H369.69Z" fill="black"/>
<path d="M319.87 167.24C319.61 167.24 319.36 167.1 319.22 166.86C319.03 166.5 319.16 166.06 319.51 165.86L341.56 153.85C341.92 153.66 342.36 153.79 342.56 154.14C342.75 154.5 342.62 154.94 342.27 155.14L320.22 167.15C320.11 167.21 319.99 167.24 319.87 167.24Z" fill="black"/>
<path d="M241.06 27.7199C242.05 43.4899 230.06 57.0799 214.28 58.0699C198.51 59.0599 184.92 47.07 183.93 31.29C182.94 15.52 194.93 1.9299 210.71 0.939903C226.48 -0.050097 240.07 11.9399 241.06 27.7199Z" fill="white"/>
<path d="M212.46 58.86C205.31 58.86 198.49 56.29 193.08 51.52C187.2 46.33 183.69 39.17 183.2 31.34C182.71 23.51 185.3 15.97 190.49 10.09C195.68 4.20997 202.84 0.69996 210.67 0.20996C226.81 -0.80004 240.79 11.52 241.8 27.67C242.29 35.5 239.7 43.04 234.52 48.92C229.33 54.8 222.17 58.31 214.34 58.8C213.71 58.84 213.09 58.86 212.47 58.86H212.46ZM212.52 1.61999C211.94 1.61999 211.35 1.64004 210.76 1.67004C203.33 2.13004 196.52 5.47005 191.59 11.05C186.66 16.64 184.2 23.8 184.67 31.24C185.13 38.67 188.47 45.48 194.05 50.41C199.64 55.34 206.79 57.79 214.24 57.33C221.67 56.86 228.48 53.53 233.41 47.95C238.34 42.36 240.8 35.19 240.33 27.76C239.41 13 227.11 1.61999 212.52 1.61999Z" fill="black"/>
<path d="M193.85 23.0099C194.76 28.0199 198.79 32.4499 202.17 36.2499C203.54 37.7899 209.37 43.6 212.19 46.41C212.99 47.2 214.38 47.1099 215.07 46.2199C217.5 43.0699 222.51 36.5499 223.68 34.8399C226.54 30.6299 229.95 25.7099 230.2 20.6299C230.42 16.1999 227.51 12.26 222.63 11.54C218.84 10.98 214.82 12.99 212.56 18.03C212.29 18.63 211.39 18.6799 211.05 18.1199C208.24 13.4199 203.87 11.9599 200.18 13.0099C195.44 14.3599 193.07 18.6399 193.86 23.0099H193.85Z" fill="#FD5F2F"/>
<path d="M54.8701 103.82L46.8999 110.28L37.0498 107.38L40.73 116.96L34.9302 125.42L45.1802 124.88L51.4302 133.02L54.0898 123.11L63.7598 119.67L55.1499 114.08L54.8701 103.82Z" fill="white"/>
<path d="M51.4301 133.75C51.2001 133.75 50.99 133.65 50.85 133.46L44.83 125.63L34.9701 126.15C34.7001 126.17 34.43 126.02 34.29 125.78C34.15 125.54 34.1697 125.24 34.3197 125.01L39.9101 116.86L36.37 107.64C36.27 107.38 36.3299 107.08 36.5199 106.88C36.7099 106.67 36.9999 106.6 37.2699 106.67L46.7402 109.47L54.4101 103.25C54.6301 103.07 54.9301 103.04 55.1801 103.15C55.4301 103.27 55.5998 103.52 55.6098 103.8L55.8798 113.67L64.1698 119.05C64.3998 119.2 64.5299 119.47 64.4999 119.75C64.4699 120.03 64.2799 120.26 64.0199 120.36L54.7099 123.67L52.1601 133.21C52.0901 133.48 51.8698 133.69 51.5898 133.74C51.5398 133.74 51.4901 133.75 51.4501 133.75H51.4301ZM45.1698 124.14C45.3998 124.14 45.6099 124.25 45.7499 124.43L51.1 131.39L53.37 122.91C53.43 122.68 53.61 122.49 53.83 122.41L62.1 119.47L54.7402 114.69C54.5402 114.56 54.4101 114.34 54.4101 114.09L54.1698 105.32L47.35 110.84C47.16 110.99 46.9101 111.04 46.6801 110.97L38.2597 108.49L41.4101 116.68C41.5001 116.91 41.47 117.16 41.33 117.36L36.37 124.6L45.1298 124.14C45.1298 124.14 45.1598 124.14 45.1698 124.14Z" fill="black"/>
<path d="M33.9702 183.72L32.2998 195.13L21.96 200.22L32.29 205.33L33.9399 216.75L41.9902 208.5L53.3599 210.46L48 200.25L53.3799 190.05L42.0098 191.98L33.9702 183.72Z" fill="#FFB743"/>
<path d="M48.3797 184.42C47.9997 184.42 47.6798 184.13 47.6498 183.75C47.4798 181.8 47.2998 179.79 47.6498 177.77C48.0698 175.42 49.1999 173.53 50.8299 172.43C52.3199 171.42 54.2899 171.04 56.8099 171.27C56.8199 171.23 56.8399 171.18 56.8499 171.14C57.5099 169.06 58.84 167.07 60.93 165.05C62.31 163.71 63.6298 162.73 64.9798 162.04C67.7298 160.64 71.1897 160.17 75.5697 160.61C75.9697 160.65 76.2698 161.01 76.2298 161.41C76.1898 161.81 75.83 162.11 75.43 162.07C71.34 161.66 68.15 162.08 65.66 163.35C64.45 163.97 63.2401 164.87 61.9701 166.1C60.1101 167.91 58.9099 169.66 58.3099 171.46C60.0799 171.76 62.3898 172.4 63.7298 174.27C64.5398 175.39 64.7298 176.98 64.2298 178.33C63.8298 179.4 63.0199 180.16 62.0199 180.4C60.2599 180.82 58.6699 179.65 57.8299 178.53C56.6599 176.95 56.1996 174.86 56.5096 172.72C54.4196 172.55 52.8598 172.85 51.6698 173.66C50.3898 174.52 49.46 176.12 49.12 178.05C48.79 179.87 48.96 181.79 49.12 183.64C49.16 184.04 48.86 184.4 48.45 184.44C48.43 184.44 48.4097 184.44 48.3797 184.44V184.42ZM57.9598 172.89C57.7098 174.66 58.0798 176.4 58.9998 177.65C59.6098 178.48 60.68 179.2 61.66 178.97C62.38 178.8 62.7097 178.17 62.8397 177.82C63.1697 176.93 63.0399 175.85 62.5199 175.13C61.6999 173.99 60.24 173.28 57.95 172.9L57.9598 172.89Z" fill="black"/>
<path d="M72.8703 140.03C72.7203 140.03 72.5702 139.98 72.4402 139.89L64.1604 133.78C63.8304 133.54 63.76 133.08 64.01 132.75C64.25 132.42 64.7103 132.35 65.0403 132.6L73.3201 138.71C73.6501 138.95 73.7204 139.41 73.4704 139.74C73.3304 139.94 73.1001 140.04 72.8801 140.04L72.8703 140.03Z" fill="black"/>
<path d="M301.76 48.6299C312.491 48.6299 321.19 39.9308 321.19 29.1999C321.19 18.469 312.491 9.76996 301.76 9.76996C291.029 9.76996 282.33 18.469 282.33 29.1999C282.33 39.9308 291.029 48.6299 301.76 48.6299Z" fill="#FFB743"/>
<path d="M328.45 109.65C328.26 109.65 328.07 109.58 327.93 109.44L317.75 99.2599C317.46 98.9699 317.46 98.5099 317.75 98.2199C318.04 97.9299 318.5 97.9299 318.79 98.2199L328.97 108.4C329.26 108.69 329.26 109.15 328.97 109.44C328.83 109.58 328.64 109.65 328.45 109.65Z" fill="black"/>
<path d="M318.27 109.65C318.08 109.65 317.89 109.58 317.75 109.44C317.46 109.15 317.46 108.69 317.75 108.4L327.93 98.2199C328.22 97.9299 328.68 97.9299 328.97 98.2199C329.26 98.5099 329.26 98.9699 328.97 99.2599L318.79 109.44C318.65 109.58 318.46 109.65 318.27 109.65Z" fill="black"/>
</svg>
